HIERARCHY
ROOT Root
{
  OFFSET 0.0 0.0 0.0
  CHANNELS 6 Xposition Yposition Zposition Zrotation Yrotation Xrotation
  JOINT Hips
  {
    OFFSET 0.0 100.0 0.0
    CHANNELS 6 Xposition Yposition Zposition Zrotation Yrotation Xrotation
    JOINT Spine1
    {
      OFFSET 5.003913 -0.037094 -0.013727
      CHANNELS 3 Zrotation Yrotation Xrotation
      JOINT Spine2
      {
        OFFSET 7.125363 -1e-06 0.0
        CHANNELS 3 Zrotation Yrotation Xrotation
        JOINT Chest
        {
          OFFSET 7.594027 1e-06 0.0
          CHANNELS 3 Zrotation Yrotation Xrotation
          JOINT Neck1
          {
            OFFSET 26.313086 -0.460272 -0.181672
            CHANNELS 3 Zrotation Yrotation Xrotation
            JOINT Neck2
            {
              OFFSET 8.045911 0.0 0.0
              CHANNELS 3 Zrotation Yrotation Xrotation
              JOINT Head
              {
                OFFSET 6.432774 0.0 0.0
                CHANNELS 3 Zrotation Yrotation Xrotation
                JOINT HeadEnd
                {
                  OFFSET 16.169773 0.06451 0.00362
                  CHANNELS 3 Zrotation Yrotation Xrotation
                }
                JOINT Jaw
                {
                  OFFSET 0.108741 3.12938 0.002639
                  CHANNELS 3 Zrotation Yrotation Xrotation
                }
                JOINT LeftEye
                {
                  OFFSET 4.45173 8.166359 3.206392
                  CHANNELS 3 Zrotation Yrotation Xrotation
                }
                JOINT RightEye
                {
                  OFFSET 4.436895 8.135758 -3.222429
                  CHANNELS 3 Zrotation Yrotation Xrotation
                }
              }
            }
          }
          JOINT LeftShoulder
          {
            OFFSET 23.218927 5.195579 1.621656
            CHANNELS 3 Zrotation Yrotation Xrotation
            JOINT LeftArm
            {
              OFFSET 15.902118 2e-06 -2e-06
              CHANNELS 3 Zrotation Yrotation Xrotation
              JOINT LeftForeArm
              {
                OFFSET 28.739307 0.0 -1e-06
                CHANNELS 3 Zrotation Yrotation Xrotation
                JOINT LeftHand
                {
                  OFFSET 27.093981 -4e-06 0.0
                  CHANNELS 3 Zrotation Yrotation Xrotation
                  JOINT LeftHandThumb1
                  {
                    OFFSET 2.276781 3.380274 0.83384
                    CHANNELS 3 Zrotation Yrotation Xrotation
                    JOINT LeftHandThumb2
                    {
                      OFFSET 4.705309 -1e-06 -1e-06
                      CHANNELS 3 Zrotation Yrotation Xrotation
                      JOINT LeftHandThumb3
                      {
                        OFFSET 2.798515 0.0 3e-06
                        CHANNELS 3 Zrotation Yrotation Xrotation
                        JOINT LeftHandThumbEnd
                        {
                          OFFSET 3.180793 4e-06 -4e-06
                          CHANNELS 3 Zrotation Yrotation Xrotation
                        }
                      }
                    }
                  }
                  JOINT LeftHandIndex1
                  {
                    OFFSET 3.247786 2.352677 0.137192
                    CHANNELS 3 Zrotation Yrotation Xrotation
                    JOINT LeftHandIndex2
                    {
                      OFFSET 6.367095 1e-06 0.0
                      CHANNELS 3 Zrotation Yrotation Xrotation
                      JOINT LeftHandIndex3
                      {
                        OFFSET 3.662364 0.0 0.0
                        CHANNELS 3 Zrotation Yrotation Xrotation
                        JOINT LeftHandIndex4
                        {
                          OFFSET 2.329242 4e-06 -4e-06
                          CHANNELS 3 Zrotation Yrotation Xrotation
                          JOINT LeftHandIndexEnd
                          {
                            OFFSET 2.767823 1e-06 0.0
                            CHANNELS 3 Zrotation Yrotation Xrotation
                          }
                        }
                      }
                    }
                  }
                  JOINT LeftHandMiddle1
                  {
                    OFFSET 3.163612 0.945023 -0.406112
                    CHANNELS 3 Zrotation Yrotation Xrotation
                    JOINT LeftHandMiddle2
                    {
                      OFFSET 6.276789 3e-06 0.0
                      CHANNELS 3 Zrotation Yrotation Xrotation
                      JOINT LeftHandMiddle3
                      {
                        OFFSET 4.35652 -1e-06 4e-06
                        CHANNELS 3 Zrotation Yrotation Xrotation
                        JOINT LeftHandMiddle4
                        {
                          OFFSET 2.996877 0.0 8e-06
                          CHANNELS 3 Zrotation Yrotation Xrotation
                          JOINT LeftHandMiddleEnd
                          {
                            OFFSET 2.323256 3e-06 -4e-06
                            CHANNELS 3 Zrotation Yrotation Xrotation
                          }
                        }
                      }
                    }
                  }
                  JOINT LeftHandRing1
                  {
                    OFFSET 2.882606 -0.309162 0.107445
                    CHANNELS 3 Zrotation Yrotation Xrotation
                    JOINT LeftHandRing2
                    {
                      OFFSET 6.033198 0.0 4e-06
                      CHANNELS 3 Zrotation Yrotation Xrotation
                      JOINT LeftHandRing3
                      {
                        OFFSET 4.350578 3e-06 0.0
                        CHANNELS 3 Zrotation Yrotation Xrotation
                        JOINT LeftHandRing4
                        {
                          OFFSET 2.651321 2e-06 -7e-06
                          CHANNELS 3 Zrotation Yrotation Xrotation
                          JOINT LeftHandRingEnd
                          {
                            OFFSET 1.937663 1e-06 -4e-06
                            CHANNELS 3 Zrotation Yrotation Xrotation
                          }
                        }
                      }
                    }
                  }
                  JOINT LeftHandPinky1
                  {
                    OFFSET 2.865315 -1.525436 0.575687
                    CHANNELS 3 Zrotation Yrotation Xrotation
                    JOINT LeftHandPinky2
                    {
                      OFFSET 5.54936 1e-06 -8e-06
                      CHANNELS 3 Zrotation Yrotation Xrotation
                      JOINT LeftHandPinky3
                      {
                        OFFSET 3.070974 0.0 -4e-06
                        CHANNELS 3 Zrotation Yrotation Xrotation
                        JOINT LeftHandPinky4
                        {
                          OFFSET 1.549672 1e-06 0.0
                          CHANNELS 3 Zrotation Yrotation Xrotation
                          JOINT LeftHandPinkyEnd
                          {
                            OFFSET 1.952123 0.0 0.0
                            CHANNELS 3 Zrotation Yrotation Xrotation
                          }
                        }
                      }
                    }
                  }
                }
              }
            }
          }
          JOINT RightShoulder
          {
            OFFSET 23.161716 5.296122 -1.380114
            CHANNELS 3 Zrotation Yrotation Xrotation
            JOINT RightArm
            {
              OFFSET -16.027195 -2e-06 1.1e-05
              CHANNELS 3 Zrotation Yrotation Xrotation
              JOINT RightForeArm
              {
                OFFSET -28.736639 4e-06 2e-06
                CHANNELS 3 Zrotation Yrotation Xrotation
                JOINT RightHand
                {
                  OFFSET -27.133619 6e-06 0.0
                  CHANNELS 3 Zrotation Yrotation Xrotation
                  JOINT RightHandThumb1
                  {
                    OFFSET -2.274328 -3.351035 -0.83067
                    CHANNELS 3 Zrotation Yrotation Xrotation
                    JOINT RightHandThumb2
                    {
                      OFFSET -4.703594 -3e-06 2e-06
                      CHANNELS 3 Zrotation Yrotation Xrotation
                      JOINT RightHandThumb3
                      {
                        OFFSET -2.794935 -4e-06 -3e-06
                        CHANNELS 3 Zrotation Yrotation Xrotation
                        JOINT RightHandThumbEnd
                        {
                          OFFSET -3.183852 4e-06 1e-06
                          CHANNELS 3 Zrotation Yrotation Xrotation
                        }
                      }
                    }
                  }
                  JOINT RightHandIndex1
                  {
                    OFFSET -3.253496 -2.33755 -0.127667
                    CHANNELS 3 Zrotation Yrotation Xrotation
                    JOINT RightHandIndex2
                    {
                      OFFSET -6.344434 0.0 0.0
                      CHANNELS 3 Zrotation Yrotation Xrotation
                      JOINT RightHandIndex3
                      {
                        OFFSET -3.654871 0.0 -8e-06
                        CHANNELS 3 Zrotation Yrotation Xrotation
                        JOINT RightHandIndex4
                        {
                          OFFSET -2.327586 -1e-06 0.0
                          CHANNELS 3 Zrotation Yrotation Xrotation
                          JOINT RightHandIndexEnd
                          {
                            OFFSET -2.770001 3e-06 8e-06
                            CHANNELS 3 Zrotation Yrotation Xrotation
                          }
                        }
                      }
                    }
                  }
                  JOINT RightHandMiddle1
                  {
                    OFFSET -3.168223 -0.944764 0.411762
                    CHANNELS 3 Zrotation Yrotation Xrotation
                    JOINT RightHandMiddle2
                    {
                      OFFSET -6.266691 -1e-06 -4e-06
                      CHANNELS 3 Zrotation Yrotation Xrotation
                      JOINT RightHandMiddle3
                      {
                        OFFSET -4.348901 0.0 0.0
                        CHANNELS 3 Zrotation Yrotation Xrotation
                        JOINT RightHandMiddle4
                        {
                          OFFSET -3.00024 2e-06 -4e-06
                          CHANNELS 3 Zrotation Yrotation Xrotation
                          JOINT RightHandMiddleEnd
                          {
                            OFFSET -2.321477 -4e-06 -4e-06
                            CHANNELS 3 Zrotation Yrotation Xrotation
                          }
                        }
                      }
                    }
                  }
                  JOINT RightHandRing1
                  {
                    OFFSET -2.885654 0.293261 -0.119232
                    CHANNELS 3 Zrotation Yrotation Xrotation
                    JOINT RightHandRing2
                    {
                      OFFSET -6.032835 -1e-06 -4e-06
                      CHANNELS 3 Zrotation Yrotation Xrotation
                      JOINT RightHandRing3
                      {
                        OFFSET -4.33881 0.0 -4e-06
                        CHANNELS 3 Zrotation Yrotation Xrotation
                        JOINT RightHandRing4
                        {
                          OFFSET -2.654903 -4e-06 -4e-06
                          CHANNELS 3 Zrotation Yrotation Xrotation
                          JOINT RightHandRingEnd
                          {
                            OFFSET -1.935122 0.0 4e-06
                            CHANNELS 3 Zrotation Yrotation Xrotation
                          }
                        }
                      }
                    }
                  }
                  JOINT RightHandPinky1
                  {
                    OFFSET -2.866241 1.503904 -0.60527
                    CHANNELS 3 Zrotation Yrotation Xrotation
                    JOINT RightHandPinky2
                    {
                      OFFSET -5.553177 -2e-06 0.0
                      CHANNELS 3 Zrotation Yrotation Xrotation
                      JOINT RightHandPinky3
                      {
                        OFFSET -3.062664 -1e-06 -4e-06
                        CHANNELS 3 Zrotation Yrotation Xrotation
                        JOINT RightHandPinky4
                        {
                          OFFSET -1.546529 2e-06 4e-06
                          CHANNELS 3 Zrotation Yrotation Xrotation
                          JOINT RightHandPinkyEnd
                          {
                            OFFSET -1.952341 0.0 -4e-06
                            CHANNELS 3 Zrotation Yrotation Xrotation
                          }
                        }
                      }
                    }
                  }
                }
              }
            }
          }
        }
      }
    }
    JOINT LeftLeg
    {
      OFFSET -8.443107 2.567604 10.043214
      CHANNELS 3 Zrotation Yrotation Xrotation
      JOINT LeftShin
      {
        OFFSET 43.229198 1e-06 -1e-06
        CHANNELS 3 Zrotation Yrotation Xrotation
        JOINT LeftFoot
        {
          OFFSET 42.298611 1e-06 1e-06
          CHANNELS 3 Zrotation Yrotation Xrotation
          JOINT LeftToeBase
          {
            OFFSET 14.165858 1e-06 0.0
            CHANNELS 3 Zrotation Yrotation Xrotation
            JOINT LeftToeEnd
            {
              OFFSET 6.7141 -0.234461 0.0
              CHANNELS 3 Zrotation Yrotation Xrotation
            }
          }
        }
      }
    }
    JOINT RightLeg
    {
      OFFSET -8.303923 2.592729 -10.047278
      CHANNELS 3 Zrotation Yrotation Xrotation
      JOINT RightShin
      {
        OFFSET -43.369682 0.0 1e-06
        CHANNELS 3 Zrotation Yrotation Xrotation
        JOINT RightFoot
        {
          OFFSET -42.260784 4e-06 2e-06
          CHANNELS 3 Zrotation Yrotation Xrotation
          JOINT RightToeBase
          {
            OFFSET -14.222245 -2e-06 -1e-06
            CHANNELS 3 Zrotation Yrotation Xrotation
            JOINT RightToeEnd
            {
              OFFSET -6.660062 0.232574 -2e-06
              CHANNELS 3 Zrotation Yrotation Xrotation
            }
          }
        }
      }
    }
  }
}
MOTION
Frames: 4
Frame Time: 0.03333333333333333
0.0 0.0 0.0 0.0 -0.0 0.0 -1.118782 100.483917 5.924706 90.334633 -2.570271 90.096199 -3.43805 -0.451068 0.162396 -11.977203 -0.515789 -0.041489 14.833677 -0.618072 -1.970019 24.447861 -1.374421 2.489726 -2.515371 -0.885945 -1.473565 -23.537128 0.888656 -2.81682 6e-06 0.0 0.0 -0.033386 0.022643 0.035557 0.009417 0.087799 0.080586 0.024388 -0.046894 -0.009065 -138.911957 -68.052727 154.880341 36.210381 -50.961533 7.257264 31.709724 -0.199946 0.080706 -9.081858 0.573904 4.146316 17.636635 -26.322729 52.411201 -19.466665 -14.395597 29.410398 -1e-06 -8.774823 -2e-06 16.30801 -17.797472 5.840888 -0.609776 -1.795654 -3.889328 -4.80709 -11.046811 -2.937852 5e-06 -20.976019 -0.0 -5.01997 -25.033564 -4.031882 6e-06 2e-06 -1e-06 -10.634537 -5.686971 -3.565587 10.573277 -17.922953 -3.113904 4e-06 -13.821209 -1e-06 -0.501773 -31.181511 -4.027019 -11.119087 -59.697739 6.818217 -13.982715 -7.150198 -2.875044 13.772731 -8.401493 -3.218241 0.347738 -34.211555 0.771648 -0.96303 -17.73337 2.62102 1e-06 -0.0 -1e-06 -17.346424 -20.095221 -4.201782 21.757566 -1.638377 3.866428 1e-06 -6.338823 -1e-06 -1.697586 -22.591749 -6.19401 -1e-06 -3e-06 -2e-06 57.978271 -78.746315 135.134521 34.700146 -62.85741 8.65897 31.623066 -0.367444 0.12764 2.298539 -10.163424 4.420932 22.182121 -20.375898 49.933331 -16.701818 -16.74353 28.476532 -3e-06 -12.690605 0.0 16.292379 -17.883032 2.483795 -0.10592 -1.513856 -4.275881 -5.039042 -5.612872 -2.953557 4e-06 -11.020523 -1e-06 -6.111297 -15.895334 -3.840472 1e-06 -2e-06 -2e-06 -10.283373 -5.680288 -4.341839 11.028298 -11.302409 -2.372633 -1.384268 -14.238583 -6.320124 -0.625436 -26.924192 -3.827603 -4.23146 -49.664963 -4.132432 -13.708529 -7.363478 -3.720938 18.141153 -14.052742 -3.242676 8e-06 -18.787271 -2e-06 -0.429712 -8.456045 2.555506 -1e-06 -0.0 -0.0 -15.923539 -20.094486 -5.473586 30.419222 -7.190828 1.735927 3e-06 -8.162927 0.0 -1.861905 -22.861469 -6.16794 1e-06 -4e-06 -2e-06 -179.282516 -2.845454 -9.267985 5.458101 -0.030489 0.01993 -76.461349 -6.168172 -7.911332 -5.04312 1.390278 2.114467 -1.0 0.0 0.0 1.294556 -4.448011 -4.588931 5.726946 0.027818 -0.046163 -76.91394 -6.007718 -7.31778 -4.814423 0.811616 1.713978 -1.000003 0.0 -0.0 
0.0 0.0 0.0 0.0 -0.0 0.0 -1.065996 100.503311 6.017462 90.332108 -2.577567 90.038361 -3.452073 -0.462002 0.16601 -11.964809 -0.496532 0.028121 14.802933 -0.618723 -2.032723 24.472273 -1.347413 2.506123 -2.500846 -0.878206 -1.479338 -23.523109 0.864996 -2.76932 6e-06 0.0 0.0 -0.032189 0.017185 0.050038 0.007818 0.086695 0.095001 0.022062 -0.056644 0.004594 -138.832809 -68.068596 154.795258 36.311859 -51.005676 7.015929 31.690281 -0.301458 0.029592 -9.055796 0.515532 4.22057 17.636633 -26.322735 52.411201 -19.466665 -14.395598 29.410395 0.0 -8.774822 -2e-06 16.288692 -17.779484 5.844162 -0.609775 -1.795654 -3.889326 -4.807091 -11.046813 -2.937851 4e-06 -20.976021 0.0 -5.019974 -25.033564 -4.031879 7e-06 1e-06 -2e-06 -10.634536 -5.686972 -3.565588 10.573274 -17.922955 -3.113899 4e-06 -13.821213 -1e-06 -0.501777 -31.181511 -4.027016 -11.138326 -59.672585 6.911808 -13.982716 -7.1502 -2.875039 13.772731 -8.401493 -3.218242 0.347734 -34.211559 0.771656 -0.963027 -17.733372 2.621018 -0.0 2e-06 1e-06 -17.346424 -20.095224 -4.201782 21.757563 -1.638374 3.86643 2e-06 -6.338826 -1e-06 -1.69759 -22.591753 -6.194004 1e-06 -4e-06 -4e-06 58.127808 -78.727699 135.020691 34.75967 -62.853935 8.538696 31.585957 -0.388913 0.117953 2.243567 -10.300096 4.35995 22.182114 -20.375896 49.933327 -16.701811 -16.74353 28.476536 -2e-06 -12.6906 -2e-06 16.270565 -17.881754 2.464236 -0.105919 -1.513856 -4.275882 -5.039042 -5.612872 -2.953557 3e-06 -11.020521 -2e-06 -6.111297 -15.895332 -3.840472 -0.0 -1e-06 0.0 -10.283372 -5.680289 -4.341838 11.028294 -11.302405 -2.372636 -1.384271 -14.238585 -6.320117 -0.625437 -26.924187 -3.827604 -4.256175 -49.747257 -4.103725 -13.708525 -7.363477 -3.720941 18.141148 -14.052739 -3.242676 5e-06 -18.78727 -1e-06 -0.429714 -8.456041 2.555506 1e-06 -1e-06 1e-06 -15.923536 -20.094482 -5.473588 30.41921 -7.190823 1.735925 4e-06 -8.162928 0.0 -1.861904 -22.861467 -6.167938 1e-06 -4e-06 -3e-06 -179.251129 -2.831487 -9.233709 5.427246 -0.019304 0.058033 -76.392639 -6.202082 -7.991772 -5.091897 1.412903 2.12354 -0.999998 -0.0 0.0 1.36848 -4.441709 -4.537588 5.596498 0.022166 -0.04436 -76.782967 -6.010024 -7.322578 -4.879751 0.79229 1.710828 -1.000002 0.0 -0.0 
0.0 0.0 0.0 0.0 -0.0 0.0 -0.995189 100.50576 6.127038 90.336052 -2.568398 89.984329 -3.466983 -0.469579 0.165903 -11.969958 -0.482207 0.062278 14.822117 -0.622442 -2.062261 24.480446 -1.321339 2.531664 -2.526378 -0.857374 -1.482216 -23.470783 0.856017 -2.722378 6e-06 -0.0 0.0 -0.035119 0.0157 0.048362 -0.007122 0.084579 0.094534 0.011003 -0.057613 0.000714 -138.823456 -68.078568 154.778168 36.372276 -51.02375 6.843766 31.737608 -0.362262 -0.003546 -9.146794 0.467775 4.188598 17.636633 -26.322733 52.411205 -19.466658 -14.395597 29.410389 0.0 -8.774822 -4e-06 16.31286 -17.795279 5.832102 -0.609776 -1.795654 -3.889327 -4.80709 -11.046811 -2.937851 3e-06 -20.976019 2e-06 -5.019972 -25.03356 -4.031882 7e-06 2e-06 -2e-06 -10.634535 -5.686972 -3.565586 10.573277 -17.922951 -3.1139 4e-06 -13.821209 -1e-06 -0.501778 -31.181507 -4.027015 -11.199954 -59.679672 6.959329 -13.982715 -7.150198 -2.875044 13.77273 -8.401491 -3.218242 0.347735 -34.211555 0.771654 -0.96303 -17.733368 2.621018 -0.0 -1e-06 -0.0 -17.346422 -20.095217 -4.201783 21.757565 -1.638375 3.86643 1e-06 -6.338824 -0.0 -1.697592 -22.591747 -6.194006 1e-06 -3e-06 -3e-06 58.19503 -78.737274 134.970703 34.779808 -62.863689 8.467613 31.526773 -0.407371 0.104418 2.203109 -10.362478 4.358197 22.182121 -20.375893 49.933319 -16.701811 -16.74353 28.476528 -2e-06 -12.690601 -1e-06 16.284231 -17.881432 2.459881 -0.105918 -1.513854 -4.275884 -5.039043 -5.612873 -2.953556 3e-06 -11.020521 -1e-06 -6.111301 -15.89533 -3.840472 -1e-06 -2e-06 0.0 -10.28337 -5.680288 -4.341839 11.028294 -11.302406 -2.372633 -1.384272 -14.238583 -6.320119 -0.62544 -26.924191 -3.827603 -4.281127 -49.793365 -4.094978 -13.708527 -7.363478 -3.720941 18.141148 -14.052739 -3.242675 6e-06 -18.787271 -3e-06 -0.429712 -8.456045 2.555505 -0.0 -1e-06 -1e-06 -15.923536 -20.094486 -5.473588 30.41921 -7.190825 1.735926 3e-06 -8.162927 0.0 -1.861903 -22.861471 -6.167941 1e-06 -3e-06 -3e-06 -179.208603 -2.804454 -9.156734 5.424107 -0.017039 0.079824 -76.401291 -6.270967 -8.032436 -5.090512 1.423866 2.129111 -1.0 0.0 -0.0 1.409741 -4.469738 -4.483407 5.560474 0.022677 -0.047871 -76.743889 -6.036393 -7.373345 -4.898403 0.779368 1.708071 -1.000001 -0.0 -0.0 
0.0 0.0 0.0 0.0 -0.0 0.0 -0.944477 100.502563 6.198241 90.343002 -2.542565 89.942741 -3.470553 -0.480818 0.161483 -11.976558 -0.471452 0.069901 14.848837 -0.631257 -2.053947 24.478809 -1.301172 2.537151 -2.555704 -0.836014 -1.453863 -23.449163 0.860362 -2.6827 6e-06 -0.0 0.0 -0.038603 0.014877 0.042238 -0.020553 0.081783 0.090005 -0.000804 -0.056449 -0.007486 -138.819046 -68.085152 154.793549 36.464767 -51.010792 6.670983 31.812063 -0.389476 -0.009645 -9.22586 0.479749 4.141654 17.636623 -26.322718 52.411179 -19.466652 -14.395596 29.410385 0.0 -8.77482 -2e-06 16.326508 -17.782909 5.814137 -0.609775 -1.795652 -3.889328 -4.80709 -11.046806 -2.937852 3e-06 -20.976009 0.0 -5.019969 -25.033546 -4.031881 7e-06 1e-06 -2e-06 -10.634532 -5.68697 -3.565588 10.573271 -17.922945 -3.113901 3e-06 -13.821203 -0.0 -0.501781 -31.181494 -4.027012 -11.22851 -59.673016 6.957308 -13.982713 -7.150198 -2.875044 13.772727 -8.401488 -3.218242 0.347734 -34.211536 0.771656 -0.963031 -17.733362 2.621019 1e-06 -1e-06 -0.0 -17.346415 -20.095211 -4.201784 21.757555 -1.638374 3.866427 -0.0 -6.338821 -0.0 -1.697591 -22.59174 -6.194005 -0.0 -3e-06 -1e-06 58.248074 -78.748627 134.929779 34.799366 -62.883373 8.476018 31.465149 -0.392851 0.103154 2.174427 -10.388827 4.351993 22.182106 -20.375898 49.933319 -16.701809 -16.74353 28.476532 -2e-06 -12.690601 -1e-06 16.306959 -17.874224 2.470145 -0.105919 -1.513856 -4.27588 -5.039041 -5.612871 -2.953556 3e-06 -11.02052 -2e-06 -6.1113 -15.895332 -3.840468 -0.0 -1e-06 0.0 -10.283368 -5.680287 -4.341839 11.028294 -11.302403 -2.372633 -1.384269 -14.238579 -6.320116 -0.625439 -26.924187 -3.827602 -4.314527 -49.764843 -4.072682 -13.708523 -7.363475 -3.720939 18.141146 -14.052737 -3.242676 5e-06 -18.78727 1e-06 -0.429712 -8.456041 2.555506 -0.0 -0.0 -1e-06 -15.923532 -20.094482 -5.473584 30.419205 -7.190822 1.735925 2e-06 -8.162925 -0.0 -1.861904 -22.861467 -6.167941 1e-06 -6e-06 -4e-06 -179.16185 -2.775005 -9.112776 5.431574 -0.019909 0.089687 -76.42836 -6.325281 -8.039312 -5.087747 1.422697 2.128499 -0.999998 -0.0 0.0 1.44121 -4.501678 -4.467502 5.571298 0.024203 -0.05394 -76.747772 -6.030171 -7.414176 -4.905768 0.763606 1.703562 -1.000002 -0.0 0.0 
